mtllib materials.mtl
v 0.1161885 -0.05437088 -0.04205692
v 0.1253109 -0.035797 0.0352205
v 0.127288 0.04191065 0.01630986
v 0.1181655 0.02333677 -0.0609675
v -0.127288 -0.04191065 -0.01630986
v -0.1253109 0.035797 -0.0352205
v -0.1161885 0.05437088 0.04205692
v -0.1181655 -0.02333677 0.0609675
vn 0.9931698 -0.05082686 -0.1050253
vn -0.9931698 0.05082686 0.1050253
vn -0.0247131 -0.9713457 0.2363827
vn 0.0247131 0.9713457 -0.2363827
vn -0.1140305 -0.2321727 -0.9659674
vn 0.1140305 0.2321727 0.9659674
vt 0.1228192 0.08316813
vt 0.1306741 0.08165118
vt 0.1321911 0.08950604
vt 0.1243362 0.09102299
vt -0.1228192 0.08316813
vt -0.1243362 0.09102299
vt -0.132191 0.08950604
vt -0.1306741 0.08165118
vt 0.100486 -0.04390309
vt 0.09770278 -0.06825967
vt 0.1056511 -0.06916793
vt 0.1084343 -0.04481134
vt -0.100486 -0.04390309
vt -0.1084343 -0.04481134
vt -0.1056511 -0.06916793
vt -0.09770278 -0.06825968
vt -0.1067244 0.02572094
vt -0.1136095 0.02979477
vt -0.1260933 0.008696329
vt -0.1192082 0.004622498
vt 0.1067245 0.02572094
vt 0.1192082 0.004622499
vt 0.1260933 0.008696331
vt 0.1136095 0.02979478
o group1820396409
g mesh1820396409
usemtl mat5
f 4/4/1 3/3/1 2/2/1 1/1/1
f 8/8/2 7/7/2 6/6/2 5/5/2
f 2/12/3 8/11/3 5/10/3 1/9/3
f 6/16/4 7/15/4 3/14/4 4/13/4
f 5/20/5 6/19/5 4/18/5 1/17/5
f 3/24/6 7/23/6 8/22/6 2/21/6
